<mxfile host="65bd71144e">
    <diagram id="h_EHi8LDR6Ytv6CQ32mq" name="Page-1">
        <mxGraphModel dx="262" dy="340" grid="1" gridSize="10" guides="1" tooltips="1" connect="1" arrows="1" fold="1" page="1" pageScale="1" pageWidth="850" pageHeight="1100" math="0" shadow="0">
            <root>
                <mxCell id="0"/>
                <mxCell id="1" parent="0"/>
                <mxCell id="2" value="Start" style="strokeWidth=2;html=1;shape=mxgraph.flowchart.start_2;whiteSpace=wrap;" vertex="1" parent="1">
                    <mxGeometry x="365" y="20" width="120" height="60" as="geometry"/>
                </mxCell>
                <mxCell id="11" value="YES" style="text;html=1;align=center;verticalAlign=middle;resizable=0;points=[];autosize=1;strokeColor=none;fillColor=none;" vertex="1" parent="1">
                    <mxGeometry x="200" y="230" width="40" height="20" as="geometry"/>
                </mxCell>
                <mxCell id="12" value="" style="group" vertex="1" connectable="0" parent="1">
                    <mxGeometry x="60" y="90" width="270" height="195" as="geometry"/>
                </mxCell>
                <mxCell id="3" value="Calculate weekly&lt;br&gt;&amp;nbsp;average sales&amp;nbsp;" style="html=1;dashed=0;whitespace=wrap;" vertex="1" parent="12">
                    <mxGeometry x="170" width="100" height="50" as="geometry"/>
                </mxCell>
                <mxCell id="7" value="Below Threshold&lt;br&gt;?" style="rhombus;whiteSpace=wrap;html=1;dashed=0;" vertex="1" parent="12">
                    <mxGeometry x="180" y="115" width="80" height="80" as="geometry"/>
                </mxCell>
                <mxCell id="8" value="" style="edgeStyle=none;html=1;" edge="1" parent="12" source="3" target="7">
                    <mxGeometry relative="1" as="geometry"/>
                </mxCell>
                <mxCell id="9" value="add item to Order &lt;br&gt;items list" style="whiteSpace=wrap;html=1;dashed=0;" vertex="1" parent="12">
                    <mxGeometry y="125" width="120" height="60" as="geometry"/>
                </mxCell>
                <mxCell id="10" value="" style="edgeStyle=none;html=1;" edge="1" parent="12" source="7" target="9">
                    <mxGeometry relative="1" as="geometry"/>
                </mxCell>
                <mxCell id="14" value="Items to be &lt;br&gt;ordered:&amp;nbsp;&lt;br&gt;medicine description,&lt;br&gt;&amp;nbsp;the quantity, and&lt;br&gt;&amp;nbsp;the address of the vendor" style="shape=parallelogram;perimeter=parallelogramPerimeter;whiteSpace=wrap;html=1;fixedSize=1;dashed=0;" vertex="1" parent="1">
                    <mxGeometry x="240" y="490" width="140" height="85" as="geometry"/>
                </mxCell>
                <mxCell id="19" value="" style="edgeStyle=none;html=1;" edge="1" parent="1" source="16" target="18">
                    <mxGeometry relative="1" as="geometry"/>
                </mxCell>
                <mxCell id="16" value="generate order list" style="whiteSpace=wrap;html=1;dashed=0;" vertex="1" parent="1">
                    <mxGeometry x="60" y="355" width="120" height="60" as="geometry"/>
                </mxCell>
                <mxCell id="17" value="" style="edgeStyle=none;html=1;" edge="1" parent="1" source="9" target="16">
                    <mxGeometry relative="1" as="geometry"/>
                </mxCell>
                <mxCell id="20" style="edgeStyle=none;html=1;" edge="1" parent="1" source="18" target="14">
                    <mxGeometry relative="1" as="geometry"/>
                </mxCell>
                <mxCell id="18" value="get name,&amp;nbsp;medicine description,&amp;nbsp;&lt;br&gt;&amp;nbsp;quantity required, and the address of the vendor&amp;nbsp;" style="whiteSpace=wrap;html=1;dashed=0;" vertex="1" parent="1">
                    <mxGeometry x="240" y="347.5" width="140" height="75" as="geometry"/>
                </mxCell>
                <mxCell id="25" value="" style="edgeStyle=none;html=1;" edge="1" parent="1" source="23" target="24">
                    <mxGeometry relative="1" as="geometry"/>
                </mxCell>
                <mxCell id="23" value="&amp;nbsp;item code number,&lt;br&gt;&amp;nbsp;quantity,&lt;br&gt;&amp;nbsp;batch number,&lt;br&gt;&amp;nbsp;expiry date, and&lt;br&gt;vendor number." style="shape=parallelogram;perimeter=parallelogramPerimeter;whiteSpace=wrap;html=1;dashed=0;" vertex="1" parent="1">
                    <mxGeometry x="410" y="90" width="170" height="70" as="geometry"/>
                </mxCell>
                <mxCell id="27" value="" style="edgeStyle=none;html=1;" edge="1" parent="1" source="24" target="26">
                    <mxGeometry relative="1" as="geometry"/>
                </mxCell>
                <mxCell id="24" value="generate cheque for the vendor" style="whiteSpace=wrap;html=1;dashed=0;" vertex="1" parent="1">
                    <mxGeometry x="435" y="245" width="120" height="60" as="geometry"/>
                </mxCell>
                <mxCell id="26" value="print cheque&amp;nbsp;" style="shape=parallelogram;perimeter=parallelogramPerimeter;whiteSpace=wrap;html=1;fixedSize=1;dashed=0;" vertex="1" parent="1">
                    <mxGeometry x="435" y="385" width="120" height="60" as="geometry"/>
                </mxCell>
                <mxCell id="30" value="" style="edgeStyle=none;html=1;" edge="1" parent="1" source="28" target="29">
                    <mxGeometry relative="1" as="geometry"/>
                </mxCell>
                <mxCell id="28" value="Enter medicine details:&lt;br&gt;trade name,&lt;br&gt;generic name,&lt;br&gt;vendors,&lt;br&gt;unit selling and&lt;br&gt;&amp;nbsp;purchase price." style="shape=parallelogram;perimeter=parallelogramPerimeter;whiteSpace=wrap;html=1;dashed=0;" vertex="1" parent="1">
                    <mxGeometry x="610" y="60" width="200" height="90" as="geometry"/>
                </mxCell>
                <mxCell id="32" value="" style="edgeStyle=none;html=1;" edge="1" parent="1" source="29" target="31">
                    <mxGeometry relative="1" as="geometry"/>
                </mxCell>
                <mxCell id="29" value="generate code number" style="whiteSpace=wrap;html=1;dashed=0;" vertex="1" parent="1">
                    <mxGeometry x="650" y="245" width="120" height="60" as="geometry"/>
                </mxCell>
                <mxCell id="31" value="add to medicine database" style="whiteSpace=wrap;html=1;dashed=0;" vertex="1" parent="1">
                    <mxGeometry x="650" y="385" width="120" height="60" as="geometry"/>
                </mxCell>
                <mxCell id="35" value="" style="edgeStyle=none;html=1;" edge="1" parent="1" source="33" target="34">
                    <mxGeometry relative="1" as="geometry"/>
                </mxCell>
                <mxCell id="33" value="query about medicine" style="shape=parallelogram;perimeter=parallelogramPerimeter;whiteSpace=wrap;html=1;dashed=0;" vertex="1" parent="1">
                    <mxGeometry x="500" y="490" width="100" height="50" as="geometry"/>
                </mxCell>
                <mxCell id="37" value="" style="edgeStyle=none;html=1;" edge="1" parent="1" source="34" target="36">
                    <mxGeometry relative="1" as="geometry"/>
                </mxCell>
                <mxCell id="34" value="check in database&amp;nbsp;" style="whiteSpace=wrap;html=1;dashed=0;" vertex="1" parent="1">
                    <mxGeometry x="670" y="485" width="120" height="60" as="geometry"/>
                </mxCell>
                <mxCell id="36" value="display&lt;br&gt;&amp;nbsp;code number&amp;nbsp;&lt;br&gt;and &lt;br&gt;quantity present" style="shape=parallelogram;perimeter=parallelogramPerimeter;whiteSpace=wrap;html=1;fixedSize=1;dashed=0;" vertex="1" parent="1">
                    <mxGeometry x="670" y="625" width="120" height="60" as="geometry"/>
                </mxCell>
                <mxCell id="40" value="" style="edgeStyle=none;html=1;" edge="1" parent="1" source="41" target="42">
                    <mxGeometry relative="1" as="geometry"/>
                </mxCell>
                <mxCell id="41" value="generate list of expired medicine" style="whiteSpace=wrap;html=1;dashed=0;" vertex="1" parent="1">
                    <mxGeometry x="500" y="600" width="120" height="60" as="geometry"/>
                </mxCell>
                <mxCell id="42" value="display&lt;br&gt;medicine&amp;nbsp;&lt;br&gt;and&amp;nbsp;&lt;br&gt;vendor" style="shape=parallelogram;perimeter=parallelogramPerimeter;whiteSpace=wrap;html=1;fixedSize=1;dashed=0;" vertex="1" parent="1">
                    <mxGeometry x="500" y="740" width="120" height="60" as="geometry"/>
                </mxCell>
                <mxCell id="46" value="" style="edgeStyle=none;html=1;" edge="1" parent="1" source="44" target="45">
                    <mxGeometry relative="1" as="geometry"/>
                </mxCell>
                <mxCell id="44" value="enter code &lt;br&gt;number, &lt;br&gt;quantity sold" style="shape=parallelogram;perimeter=parallelogramPerimeter;whiteSpace=wrap;html=1;dashed=0;" vertex="1" parent="1">
                    <mxGeometry x="230" y="640" width="120" height="45" as="geometry"/>
                </mxCell>
                <mxCell id="48" value="" style="edgeStyle=none;html=1;" edge="1" parent="1" source="45" target="47">
                    <mxGeometry relative="1" as="geometry"/>
                </mxCell>
                <mxCell id="45" value="generate cash receipt" style="whiteSpace=wrap;html=1;dashed=0;" vertex="1" parent="1">
                    <mxGeometry x="230" y="757.5" width="120" height="60" as="geometry"/>
                </mxCell>
                <mxCell id="47" value="print cash receipt" style="shape=parallelogram;perimeter=parallelogramPerimeter;whiteSpace=wrap;html=1;fixedSize=1;dashed=0;" vertex="1" parent="1">
                    <mxGeometry x="230" y="897.5" width="120" height="60" as="geometry"/>
                </mxCell>
                <mxCell id="51" value="" style="edgeStyle=none;html=1;" edge="1" parent="1" source="49" target="50">
                    <mxGeometry relative="1" as="geometry"/>
                </mxCell>
                <mxCell id="49" value="generate &lt;br&gt;revenue,&amp;nbsp;&lt;br&gt;profit and&amp;nbsp;&lt;br&gt;vendor-wise &lt;br&gt;payments&amp;nbsp;" style="html=1;dashed=0;whitespace=wrap;" vertex="1" parent="1">
                    <mxGeometry x="620" y="790" width="111" height="78" as="geometry"/>
                </mxCell>
                <mxCell id="50" value="cash report" style="shape=parallelogram;perimeter=parallelogramPerimeter;whiteSpace=wrap;html=1;fixedSize=1;dashed=0;" vertex="1" parent="1">
                    <mxGeometry x="615.5" y="940" width="120" height="60" as="geometry"/>
                </mxCell>
            </root>
        </mxGraphModel>
    </diagram>
</mxfile>